<svg width="204" height="204" viewBox="0 0 204 204" fill="none" xmlns="http://www.w3.org/2000/svg">
<g clip-path="url(#clip0_11_195)">
<path d="M187.639 69.9024C193.092 67.8589 199.226 70.6146 200.696 76.2487C206.238 97.4866 204.802 120.051 196.436 140.546C186.737 164.31 168.435 183.543 145.182 194.409C121.928 205.275 95.4335 206.975 70.9823 199.169C46.5311 191.364 25.9213 174.628 13.2644 152.299C0.607559 129.97 -3.16595 103.69 2.69673 78.7019C8.55941 53.7137 23.6272 31.8543 44.8943 17.4845C66.1614 3.11471 92.0643 -2.70908 117.435 1.17496C139.317 4.52476 159.415 14.883 174.791 30.5469C178.869 34.7023 178.083 41.3808 173.529 45.0093C168.975 48.6377 162.385 47.8275 158.195 43.7835C146.212 32.2158 130.877 24.5645 114.244 22.0182C94.1183 18.9371 73.5703 23.5569 56.6996 34.9561C39.829 46.3553 27.876 63.6958 23.2253 83.5183C18.5746 103.34 21.5681 124.188 31.6084 141.901C41.6488 159.614 57.9981 172.89 77.3945 179.082C96.791 185.274 117.809 183.925 136.255 175.305C154.701 166.686 169.219 151.429 176.914 132.578C183.273 116.999 184.584 99.912 180.815 83.6883C179.497 78.0167 182.187 71.946 187.639 69.9024Z" fill="url(#paint0_linear_11_195)"/>
<path d="M76.264 114L83.432 94.64H89.608L82.792 114H76.264ZM73.416 96.464V91.216H89.608V94.64L87.816 96.464H73.416ZM98.3513 114.384C96.7939 114.384 95.2686 114.117 93.7753 113.584C92.3033 113.029 91.0873 112.251 90.1273 111.248L94.1593 107.312C94.5219 107.824 95.0659 108.251 95.7913 108.592C96.5379 108.912 97.3059 109.072 98.0953 109.072C98.7779 109.072 99.3646 108.955 99.8553 108.72C100.346 108.485 100.73 108.155 101.007 107.728C101.285 107.28 101.423 106.768 101.423 106.192C101.423 105.616 101.274 105.104 100.975 104.656C100.698 104.187 100.282 103.824 99.7273 103.568C99.1726 103.291 98.4899 103.152 97.6793 103.152C96.9966 103.152 96.3566 103.259 95.7593 103.472C95.1619 103.685 94.6499 103.952 94.2233 104.272L94.9273 100.176C95.5673 99.856 96.1113 99.5893 96.5593 99.376C97.0073 99.1627 97.4659 99.0133 97.9353 98.928C98.4046 98.8213 98.9593 98.768 99.5993 98.768C101.37 98.768 102.853 99.12 104.047 99.824C105.242 100.528 106.149 101.467 106.767 102.64C107.386 103.792 107.695 105.051 107.695 106.416C107.695 107.973 107.311 109.36 106.543 110.576C105.797 111.771 104.73 112.709 103.343 113.392C101.957 114.053 100.293 114.384 98.3513 114.384ZM94.2233 104.272L91.8873 102.224L93.0713 91.216H98.7673L97.5833 101.616L94.2233 104.272ZM93.7753 96.464L93.0713 91.216H106.447V96.464H93.7753ZM110.742 114L123.446 91.216H128.886L116.182 114H110.742ZM125.398 114.32C124.502 114.32 123.68 114.107 122.934 113.68C122.187 113.232 121.59 112.635 121.142 111.888C120.715 111.141 120.502 110.309 120.502 109.392C120.502 108.475 120.715 107.653 121.142 106.928C121.59 106.203 122.176 105.627 122.902 105.2C123.648 104.752 124.48 104.528 125.398 104.528C126.336 104.528 127.179 104.752 127.926 105.2C128.672 105.627 129.259 106.203 129.686 106.928C130.134 107.653 130.358 108.475 130.358 109.392C130.358 110.309 130.134 111.141 129.686 111.888C129.259 112.635 128.672 113.232 127.926 113.68C127.179 114.107 126.336 114.32 125.398 114.32ZM125.43 110.384C125.707 110.384 125.931 110.299 126.102 110.128C126.294 109.936 126.39 109.701 126.39 109.424C126.39 109.147 126.294 108.923 126.102 108.752C125.931 108.56 125.707 108.464 125.43 108.464C125.152 108.464 124.918 108.56 124.726 108.752C124.555 108.923 124.47 109.147 124.47 109.424C124.47 109.701 124.555 109.936 124.726 110.128C124.918 110.299 125.152 110.384 125.43 110.384ZM114.166 100.688C113.27 100.688 112.448 100.475 111.702 100.048C110.955 99.6 110.358 99.0027 109.91 98.256C109.483 97.5093 109.27 96.6773 109.27 95.76C109.27 94.8427 109.483 94.0213 109.91 93.296C110.358 92.5707 110.944 91.9947 111.67 91.568C112.416 91.12 113.248 90.896 114.166 90.896C115.104 90.896 115.947 91.12 116.694 91.568C117.44 91.9947 118.027 92.5707 118.454 93.296C118.902 94.0213 119.126 94.8427 119.126 95.76C119.126 96.6773 118.902 97.5093 118.454 98.256C118.027 99.0027 117.44 99.6 116.694 100.048C115.947 100.475 115.104 100.688 114.166 100.688ZM114.198 96.752C114.475 96.752 114.699 96.6667 114.87 96.496C115.062 96.304 115.158 96.0693 115.158 95.792C115.158 95.5147 115.062 95.2907 114.87 95.12C114.699 94.928 114.475 94.832 114.198 94.832C113.92 94.832 113.686 94.928 113.494 95.12C113.323 95.2907 113.238 95.5147 113.238 95.792C113.238 96.0693 113.323 96.304 113.494 96.496C113.686 96.6667 113.92 96.752 114.198 96.752Z" fill="white"/>
</g>
<defs>
<linearGradient id="paint0_linear_11_195" x1="-12.4346" y1="91.2148" x2="228.124" y2="92.0983" gradientUnits="userSpaceOnUse">
<stop stop-color="#AA367C"/>
<stop offset="1" stop-color="#4A2FBD"/>
</linearGradient>
<clipPath id="clip0_11_195">
<rect width="204" height="204" fill="white"/>
</clipPath>
</defs>
</svg>
