<svg width="204" height="204" viewBox="0 0 204 204" fill="none" xmlns="http://www.w3.org/2000/svg">
<g clip-path="url(#clip0_11_177)">
<path d="M187.639 69.9024C193.092 67.8589 199.226 70.6146 200.696 76.2487C206.238 97.4866 204.802 120.051 196.436 140.546C186.737 164.31 168.435 183.543 145.182 194.409C121.928 205.275 95.4335 206.975 70.9823 199.169C46.5311 191.364 25.9213 174.628 13.2644 152.299C0.607559 129.97 -3.16595 103.69 2.69673 78.7019C8.55941 53.7137 23.6272 31.8543 44.8943 17.4845C66.1614 3.11471 92.0643 -2.70908 117.435 1.17496C139.317 4.52476 159.415 14.883 174.791 30.5469C178.869 34.7023 178.083 41.3808 173.529 45.0093C168.975 48.6377 162.385 47.8275 158.195 43.7835C146.212 32.2158 130.877 24.5645 114.244 22.0182C94.1183 18.9371 73.5703 23.5569 56.6996 34.9561C39.829 46.3553 27.876 63.6958 23.2253 83.5183C18.5746 103.34 21.5681 124.188 31.6084 141.901C41.6488 159.614 57.9981 172.89 77.3945 179.082C96.791 185.274 117.809 183.925 136.255 175.305C154.701 166.686 169.219 151.429 176.914 132.578C183.273 116.999 184.584 99.912 180.815 83.6883C179.497 78.0167 182.187 71.946 187.639 69.9024Z" fill="url(#paint0_linear_11_177)"/>
<path d="M72.448 106.32L79.296 91.216H86.08L79.072 106.32H72.448ZM72.448 109.744V106.32L74.176 104.496H91.264V109.744H72.448ZM83.136 114V100.688H89.376V114H83.136ZM99.82 114.384C98.2627 114.384 96.7373 114.117 95.244 113.584C93.772 113.029 92.556 112.251 91.596 111.248L95.628 107.312C95.9907 107.824 96.5347 108.251 97.26 108.592C98.0067 108.912 98.7747 109.072 99.564 109.072C100.247 109.072 100.833 108.955 101.324 108.72C101.815 108.485 102.199 108.155 102.476 107.728C102.753 107.28 102.892 106.768 102.892 106.192C102.892 105.616 102.743 105.104 102.444 104.656C102.167 104.187 101.751 103.824 101.196 103.568C100.641 103.291 99.9587 103.152 99.148 103.152C98.4653 103.152 97.8253 103.259 97.228 103.472C96.6307 103.685 96.1187 103.952 95.692 104.272L96.396 100.176C97.036 99.856 97.58 99.5893 98.028 99.376C98.476 99.1627 98.9347 99.0133 99.404 98.928C99.8733 98.8213 100.428 98.768 101.068 98.768C102.839 98.768 104.321 99.12 105.516 99.824C106.711 100.528 107.617 101.467 108.236 102.64C108.855 103.792 109.164 105.051 109.164 106.416C109.164 107.973 108.78 109.36 108.012 110.576C107.265 111.771 106.199 112.709 104.812 113.392C103.425 114.053 101.761 114.384 99.82 114.384ZM95.692 104.272L93.356 102.224L94.54 91.216H100.236L99.052 101.616L95.692 104.272ZM95.244 96.464L94.54 91.216H107.916V96.464H95.244ZM112.21 114L124.914 91.216H130.354L117.65 114H112.21ZM126.866 114.32C125.97 114.32 125.149 114.107 124.402 113.68C123.656 113.232 123.058 112.635 122.61 111.888C122.184 111.141 121.97 110.309 121.97 109.392C121.97 108.475 122.184 107.653 122.61 106.928C123.058 106.203 123.645 105.627 124.37 105.2C125.117 104.752 125.949 104.528 126.866 104.528C127.805 104.528 128.648 104.752 129.394 105.2C130.141 105.627 130.728 106.203 131.154 106.928C131.602 107.653 131.826 108.475 131.826 109.392C131.826 110.309 131.602 111.141 131.154 111.888C130.728 112.635 130.141 113.232 129.394 113.68C128.648 114.107 127.805 114.32 126.866 114.32ZM126.898 110.384C127.176 110.384 127.4 110.299 127.57 110.128C127.762 109.936 127.858 109.701 127.858 109.424C127.858 109.147 127.762 108.923 127.57 108.752C127.4 108.56 127.176 108.464 126.898 108.464C126.621 108.464 126.386 108.56 126.194 108.752C126.024 108.923 125.938 109.147 125.938 109.424C125.938 109.701 126.024 109.936 126.194 110.128C126.386 110.299 126.621 110.384 126.898 110.384ZM115.634 100.688C114.738 100.688 113.917 100.475 113.17 100.048C112.424 99.6 111.826 99.0027 111.378 98.256C110.952 97.5093 110.738 96.6773 110.738 95.76C110.738 94.8427 110.952 94.0213 111.378 93.296C111.826 92.5707 112.413 91.9947 113.138 91.568C113.885 91.12 114.717 90.896 115.634 90.896C116.573 90.896 117.416 91.12 118.162 91.568C118.909 91.9947 119.496 92.5707 119.922 93.296C120.37 94.0213 120.594 94.8427 120.594 95.76C120.594 96.6773 120.37 97.5093 119.922 98.256C119.496 99.0027 118.909 99.6 118.162 100.048C117.416 100.475 116.573 100.688 115.634 100.688ZM115.666 96.752C115.944 96.752 116.168 96.6667 116.338 96.496C116.53 96.304 116.626 96.0693 116.626 95.792C116.626 95.5147 116.53 95.2907 116.338 95.12C116.168 94.928 115.944 94.832 115.666 94.832C115.389 94.832 115.154 94.928 114.962 95.12C114.792 95.2907 114.706 95.5147 114.706 95.792C114.706 96.0693 114.792 96.304 114.962 96.496C115.154 96.6667 115.389 96.752 115.666 96.752Z" fill="white"/>
</g>
<defs>
<linearGradient id="paint0_linear_11_177" x1="-12.4346" y1="91.2148" x2="228.124" y2="92.0983" gradientUnits="userSpaceOnUse">
<stop stop-color="#AA367C"/>
<stop offset="1" stop-color="#4A2FBD"/>
</linearGradient>
<clipPath id="clip0_11_177">
<rect width="204" height="204" fill="white"/>
</clipPath>
</defs>
</svg>
