<svg width="204" height="204" viewBox="0 0 204 204" fill="none" xmlns="http://www.w3.org/2000/svg">
<g clip-path="url(#clip0_11_198)">
<path d="M187.639 69.9024C193.092 67.8589 199.226 70.6146 200.696 76.2487C206.238 97.4866 204.802 120.051 196.436 140.546C186.737 164.31 168.435 183.543 145.182 194.409C121.928 205.275 95.4335 206.975 70.9823 199.169C46.5311 191.364 25.9213 174.628 13.2644 152.299C0.607559 129.97 -3.16595 103.69 2.69673 78.7019C8.55941 53.7137 23.6272 31.8543 44.8943 17.4845C66.1614 3.11471 92.0643 -2.70908 117.435 1.17496C139.317 4.52476 159.415 14.883 174.791 30.5469C178.869 34.7023 178.083 41.3808 173.529 45.0093C168.975 48.6377 162.385 47.8275 158.195 43.7835C146.212 32.2158 130.877 24.5645 114.244 22.0182C94.1183 18.9371 73.5703 23.5569 56.6996 34.9561C39.829 46.3553 27.876 63.6958 23.2253 83.5183C18.5746 103.34 21.5681 124.188 31.6084 141.901C41.6488 159.614 57.9981 172.89 77.3945 179.082C96.791 185.274 117.809 183.925 136.255 175.305C154.701 166.686 169.219 151.429 176.914 132.578C183.273 116.999 184.584 99.912 180.815 83.6883C179.497 78.0167 182.187 71.946 187.639 69.9024Z" fill="url(#paint0_linear_11_198)"/>
<path d="M80.216 114.384C78.488 114.384 76.984 114.096 75.704 113.52C74.424 112.923 73.432 112.123 72.728 111.12C72.024 110.096 71.672 108.933 71.672 107.632C71.672 106.501 71.8853 105.499 72.312 104.624C72.7387 103.749 73.3253 103.035 74.072 102.48C74.84 101.925 75.704 101.563 76.664 101.392L76.568 102.448C75.7147 102.299 74.9787 101.968 74.36 101.456C73.7627 100.923 73.2933 100.272 72.952 99.504C72.632 98.736 72.472 97.9467 72.472 97.136C72.472 95.92 72.792 94.8427 73.432 93.904C74.0933 92.944 75 92.1973 76.152 91.664C77.3253 91.1093 78.68 90.832 80.216 90.832C81.752 90.832 83.096 91.1093 84.248 91.664C85.4 92.1973 86.296 92.944 86.936 93.904C87.5973 94.8427 87.928 95.92 87.928 97.136C87.928 97.9467 87.768 98.736 87.448 99.504C87.128 100.272 86.6587 100.923 86.04 101.456C85.4427 101.968 84.7173 102.299 83.864 102.448L83.736 101.392C84.7173 101.563 85.5813 101.925 86.328 102.48C87.096 103.035 87.6933 103.749 88.12 104.624C88.5467 105.499 88.76 106.501 88.76 107.632C88.76 108.933 88.408 110.096 87.704 111.12C87 112.123 86.008 112.923 84.728 113.52C83.448 114.096 81.944 114.384 80.216 114.384ZM80.216 109.136C80.7067 109.136 81.1333 109.029 81.496 108.816C81.88 108.603 82.1787 108.315 82.392 107.952C82.6053 107.568 82.712 107.141 82.712 106.672C82.712 106.203 82.6053 105.787 82.392 105.424C82.1787 105.061 81.88 104.773 81.496 104.56C81.1333 104.347 80.7067 104.24 80.216 104.24C79.7253 104.24 79.288 104.347 78.904 104.56C78.5413 104.773 78.2533 105.061 78.04 105.424C77.8267 105.787 77.72 106.203 77.72 106.672C77.72 107.141 77.8267 107.568 78.04 107.952C78.2533 108.315 78.5413 108.603 78.904 108.816C79.288 109.029 79.7253 109.136 80.216 109.136ZM80.216 99.792C80.7707 99.792 81.2187 99.6213 81.56 99.28C81.9227 98.9173 82.104 98.4693 82.104 97.936C82.104 97.3813 81.9227 96.9227 81.56 96.56C81.2187 96.176 80.7707 95.984 80.216 95.984C79.6613 95.984 79.2027 96.1653 78.84 96.528C78.4773 96.8693 78.296 97.3173 78.296 97.872C78.296 98.4053 78.4773 98.864 78.84 99.248C79.2027 99.6107 79.6613 99.792 80.216 99.792ZM100.286 114.384C98.3228 114.384 96.5735 113.883 95.0375 112.88C93.5228 111.856 92.3282 110.459 91.4535 108.688C90.5788 106.896 90.1415 104.859 90.1415 102.576C90.1415 100.293 90.5682 98.2667 91.4215 96.496C92.2962 94.7253 93.4908 93.3387 95.0055 92.336C96.5202 91.3333 98.2588 90.832 100.222 90.832C102.206 90.832 103.955 91.3333 105.47 92.336C107.006 93.3387 108.2 94.7253 109.054 96.496C109.928 98.2667 110.366 100.304 110.366 102.608C110.366 104.912 109.928 106.949 109.054 108.72C108.2 110.491 107.016 111.877 105.502 112.88C103.987 113.883 102.248 114.384 100.286 114.384ZM100.254 108.944C101.043 108.944 101.715 108.699 102.27 108.208C102.824 107.717 103.24 107.003 103.518 106.064C103.816 105.104 103.966 103.952 103.966 102.608C103.966 101.264 103.816 100.123 103.518 99.184C103.24 98.2453 102.824 97.5307 102.27 97.04C101.715 96.528 101.032 96.272 100.222 96.272C99.4535 96.272 98.7922 96.5173 98.2375 97.008C97.6828 97.4987 97.2562 98.2133 96.9575 99.152C96.6802 100.091 96.5415 101.232 96.5415 102.576C96.5415 103.92 96.6802 105.072 96.9575 106.032C97.2562 106.971 97.6828 107.696 98.2375 108.208C98.7922 108.699 99.4642 108.944 100.254 108.944ZM113.367 114L126.071 91.216H131.511L118.807 114H113.367ZM128.023 114.32C127.127 114.32 126.305 114.107 125.559 113.68C124.812 113.232 124.215 112.635 123.767 111.888C123.34 111.141 123.127 110.309 123.127 109.392C123.127 108.475 123.34 107.653 123.767 106.928C124.215 106.203 124.801 105.627 125.527 105.2C126.273 104.752 127.105 104.528 128.023 104.528C128.961 104.528 129.804 104.752 130.551 105.2C131.297 105.627 131.884 106.203 132.311 106.928C132.759 107.653 132.983 108.475 132.983 109.392C132.983 110.309 132.759 111.141 132.311 111.888C131.884 112.635 131.297 113.232 130.551 113.68C129.804 114.107 128.961 114.32 128.023 114.32ZM128.055 110.384C128.332 110.384 128.556 110.299 128.727 110.128C128.919 109.936 129.015 109.701 129.015 109.424C129.015 109.147 128.919 108.923 128.727 108.752C128.556 108.56 128.332 108.464 128.055 108.464C127.777 108.464 127.543 108.56 127.351 108.752C127.18 108.923 127.095 109.147 127.095 109.424C127.095 109.701 127.18 109.936 127.351 110.128C127.543 110.299 127.777 110.384 128.055 110.384ZM116.791 100.688C115.895 100.688 115.073 100.475 114.327 100.048C113.58 99.6 112.983 99.0027 112.535 98.256C112.108 97.5093 111.895 96.6773 111.895 95.76C111.895 94.8427 112.108 94.0213 112.535 93.296C112.983 92.5707 113.569 91.9947 114.295 91.568C115.041 91.12 115.873 90.896 116.791 90.896C117.729 90.896 118.572 91.12 119.319 91.568C120.065 91.9947 120.652 92.5707 121.079 93.296C121.527 94.0213 121.751 94.8427 121.751 95.76C121.751 96.6773 121.527 97.5093 121.079 98.256C120.652 99.0027 120.065 99.6 119.319 100.048C118.572 100.475 117.729 100.688 116.791 100.688ZM116.823 96.752C117.1 96.752 117.324 96.6667 117.495 96.496C117.687 96.304 117.783 96.0693 117.783 95.792C117.783 95.5147 117.687 95.2907 117.495 95.12C117.324 94.928 117.1 94.832 116.823 94.832C116.545 94.832 116.311 94.928 116.119 95.12C115.948 95.2907 115.863 95.5147 115.863 95.792C115.863 96.0693 115.948 96.304 116.119 96.496C116.311 96.6667 116.545 96.752 116.823 96.752Z" fill="white"/>
</g>
<defs>
<linearGradient id="paint0_linear_11_198" x1="-12.4346" y1="91.2148" x2="228.124" y2="92.0983" gradientUnits="userSpaceOnUse">
<stop stop-color="#AA367C"/>
<stop offset="1" stop-color="#4A2FBD"/>
</linearGradient>
<clipPath id="clip0_11_198">
<rect width="204" height="204" fill="white"/>
</clipPath>
</defs>
</svg>
