<svg width="204" height="204" viewBox="0 0 204 204" fill="none" xmlns="http://www.w3.org/2000/svg">
<g clip-path="url(#clip0_11_189)">
<path d="M187.639 69.9024C193.092 67.8589 199.226 70.6146 200.696 76.2487C206.238 97.4866 204.802 120.051 196.436 140.546C186.737 164.31 168.435 183.543 145.182 194.409C121.928 205.275 95.4335 206.975 70.9823 199.169C46.5311 191.364 25.9213 174.628 13.2644 152.299C0.607559 129.97 -3.16595 103.69 2.69673 78.7019C8.55941 53.7137 23.6272 31.8543 44.8943 17.4845C66.1614 3.11471 92.0643 -2.70908 117.435 1.17496C139.317 4.52476 159.415 14.883 174.791 30.5469C178.869 34.7023 178.083 41.3808 173.529 45.0093C168.975 48.6377 162.385 47.8275 158.195 43.7835C146.212 32.2158 130.877 24.5645 114.244 22.0182C94.1183 18.9371 73.5703 23.5569 56.6996 34.9561C39.829 46.3553 27.876 63.6958 23.2253 83.5183C18.5746 103.34 21.5681 124.188 31.6084 141.901C41.6488 159.614 57.9981 172.89 77.3945 179.082C96.791 185.274 117.809 183.925 136.255 175.305C154.701 166.686 169.219 151.429 176.914 132.578C183.273 116.999 184.584 99.912 180.815 83.6883C179.497 78.0167 182.187 71.946 187.639 69.9024Z" fill="url(#paint0_linear_11_189)"/>
<path d="M81.344 114.384C79.68 114.384 78.176 114.032 76.832 113.328C75.5093 112.624 74.4533 111.675 73.664 110.48C72.896 109.264 72.512 107.899 72.512 106.384C72.512 104.592 73.1307 102.789 74.368 100.976L80.992 91.216H88.096L80.448 101.776L78.048 101.264C78.4107 100.731 78.752 100.272 79.072 99.888C79.4133 99.504 79.8187 99.2053 80.288 98.992C80.7787 98.7787 81.4187 98.672 82.208 98.672C83.7013 98.672 85.0453 99.024 86.24 99.728C87.4347 100.411 88.384 101.339 89.088 102.512C89.8133 103.664 90.176 104.955 90.176 106.384C90.176 107.899 89.7813 109.264 88.992 110.48C88.224 111.675 87.1787 112.624 85.856 113.328C84.5333 114.032 83.0293 114.384 81.344 114.384ZM81.344 109.072C81.8773 109.072 82.3467 108.955 82.752 108.72C83.1787 108.464 83.5093 108.123 83.744 107.696C83.9787 107.248 84.096 106.747 84.096 106.192C84.096 105.637 83.9787 105.147 83.744 104.72C83.5093 104.272 83.1787 103.931 82.752 103.696C82.3467 103.44 81.8773 103.312 81.344 103.312C80.8107 103.312 80.3307 103.44 79.904 103.696C79.4987 103.931 79.1787 104.272 78.944 104.72C78.7093 105.147 78.592 105.637 78.592 106.192C78.592 106.747 78.7093 107.248 78.944 107.696C79.1787 108.123 79.4987 108.464 79.904 108.72C80.3307 108.955 80.8107 109.072 81.344 109.072ZM99.0075 114.384C97.4502 114.384 95.9248 114.117 94.4315 113.584C92.9595 113.029 91.7435 112.251 90.7835 111.248L94.8155 107.312C95.1782 107.824 95.7222 108.251 96.4475 108.592C97.1942 108.912 97.9622 109.072 98.7515 109.072C99.4342 109.072 100.021 108.955 100.512 108.72C101.002 108.485 101.386 108.155 101.664 107.728C101.941 107.28 102.08 106.768 102.08 106.192C102.08 105.616 101.93 105.104 101.632 104.656C101.354 104.187 100.938 103.824 100.384 103.568C99.8288 103.291 99.1462 103.152 98.3355 103.152C97.6528 103.152 97.0128 103.259 96.4155 103.472C95.8182 103.685 95.3062 103.952 94.8795 104.272L95.5835 100.176C96.2235 99.856 96.7675 99.5893 97.2155 99.376C97.6635 99.1627 98.1222 99.0133 98.5915 98.928C99.0608 98.8213 99.6155 98.768 100.256 98.768C102.026 98.768 103.509 99.12 104.704 99.824C105.898 100.528 106.805 101.467 107.424 102.64C108.042 103.792 108.352 105.051 108.352 106.416C108.352 107.973 107.968 109.36 107.2 110.576C106.453 111.771 105.386 112.709 104 113.392C102.613 114.053 100.949 114.384 99.0075 114.384ZM94.8795 104.272L92.5435 102.224L93.7275 91.216H99.4235L98.2395 101.616L94.8795 104.272ZM94.4315 96.464L93.7275 91.216H107.104V96.464H94.4315ZM111.398 114L124.102 91.216H129.542L116.838 114H111.398ZM126.054 114.32C125.158 114.32 124.336 114.107 123.59 113.68C122.843 113.232 122.246 112.635 121.798 111.888C121.371 111.141 121.158 110.309 121.158 109.392C121.158 108.475 121.371 107.653 121.798 106.928C122.246 106.203 122.832 105.627 123.558 105.2C124.304 104.752 125.136 104.528 126.054 104.528C126.992 104.528 127.835 104.752 128.582 105.2C129.328 105.627 129.915 106.203 130.342 106.928C130.79 107.653 131.014 108.475 131.014 109.392C131.014 110.309 130.79 111.141 130.342 111.888C129.915 112.635 129.328 113.232 128.582 113.68C127.835 114.107 126.992 114.32 126.054 114.32ZM126.086 110.384C126.363 110.384 126.587 110.299 126.758 110.128C126.95 109.936 127.046 109.701 127.046 109.424C127.046 109.147 126.95 108.923 126.758 108.752C126.587 108.56 126.363 108.464 126.086 108.464C125.808 108.464 125.574 108.56 125.382 108.752C125.211 108.923 125.126 109.147 125.126 109.424C125.126 109.701 125.211 109.936 125.382 110.128C125.574 110.299 125.808 110.384 126.086 110.384ZM114.822 100.688C113.926 100.688 113.104 100.475 112.358 100.048C111.611 99.6 111.014 99.0027 110.566 98.256C110.139 97.5093 109.926 96.6773 109.926 95.76C109.926 94.8427 110.139 94.0213 110.566 93.296C111.014 92.5707 111.6 91.9947 112.326 91.568C113.072 91.12 113.904 90.896 114.822 90.896C115.76 90.896 116.603 91.12 117.35 91.568C118.096 91.9947 118.683 92.5707 119.11 93.296C119.558 94.0213 119.782 94.8427 119.782 95.76C119.782 96.6773 119.558 97.5093 119.11 98.256C118.683 99.0027 118.096 99.6 117.35 100.048C116.603 100.475 115.76 100.688 114.822 100.688ZM114.854 96.752C115.131 96.752 115.355 96.6667 115.526 96.496C115.718 96.304 115.814 96.0693 115.814 95.792C115.814 95.5147 115.718 95.2907 115.526 95.12C115.355 94.928 115.131 94.832 114.854 94.832C114.576 94.832 114.342 94.928 114.15 95.12C113.979 95.2907 113.894 95.5147 113.894 95.792C113.894 96.0693 113.979 96.304 114.15 96.496C114.342 96.6667 114.576 96.752 114.854 96.752Z" fill="white"/>
</g>
<defs>
<linearGradient id="paint0_linear_11_189" x1="-12.4346" y1="91.2148" x2="228.124" y2="92.0983" gradientUnits="userSpaceOnUse">
<stop stop-color="#AA367C"/>
<stop offset="1" stop-color="#4A2FBD"/>
</linearGradient>
<clipPath id="clip0_11_189">
<rect width="204" height="204" fill="white"/>
</clipPath>
</defs>
</svg>
