<svg width="204" height="204" viewBox="0 0 204 204" fill="none" xmlns="http://www.w3.org/2000/svg">
<g clip-path="url(#clip0_11_201)">
<path d="M187.639 69.9024C193.092 67.8589 199.226 70.6146 200.696 76.2487C206.238 97.4866 204.802 120.051 196.436 140.546C186.737 164.31 168.435 183.543 145.182 194.409C121.928 205.275 95.4335 206.975 70.9823 199.169C46.5311 191.364 25.9213 174.628 13.2644 152.299C0.607559 129.97 -3.16595 103.69 2.69673 78.7019C8.55941 53.7137 23.6272 31.8543 44.8943 17.4845C66.1614 3.11471 92.0643 -2.70908 117.435 1.17496C139.317 4.52476 159.415 14.883 174.791 30.5469C178.869 34.7023 178.083 41.3808 173.529 45.0093C168.975 48.6377 162.385 47.8275 158.195 43.7835C146.212 32.2158 130.877 24.5645 114.244 22.0182C94.1183 18.9371 73.5703 23.5569 56.6996 34.9561C39.829 46.3553 27.876 63.6958 23.2253 83.5183C18.5746 103.34 21.5681 124.188 31.6084 141.901C41.6488 159.614 57.9981 172.89 77.3945 179.082C96.791 185.274 117.809 183.925 136.255 175.305C154.701 166.686 169.219 151.429 176.914 132.578C183.273 116.999 184.584 99.912 180.815 83.6883C179.497 78.0167 182.187 71.946 187.639 69.9024Z" fill="url(#paint0_linear_11_201)"/>
<path d="M81.216 114.384C79.488 114.384 77.984 114.096 76.704 113.52C75.424 112.923 74.432 112.123 73.728 111.12C73.024 110.096 72.672 108.933 72.672 107.632C72.672 106.501 72.8853 105.499 73.312 104.624C73.7387 103.749 74.3253 103.035 75.072 102.48C75.84 101.925 76.704 101.563 77.664 101.392L77.568 102.448C76.7147 102.299 75.9787 101.968 75.36 101.456C74.7627 100.923 74.2933 100.272 73.952 99.504C73.632 98.736 73.472 97.9467 73.472 97.136C73.472 95.92 73.792 94.8427 74.432 93.904C75.0933 92.944 76 92.1973 77.152 91.664C78.3253 91.1093 79.68 90.832 81.216 90.832C82.752 90.832 84.096 91.1093 85.248 91.664C86.4 92.1973 87.296 92.944 87.936 93.904C88.5973 94.8427 88.928 95.92 88.928 97.136C88.928 97.9467 88.768 98.736 88.448 99.504C88.128 100.272 87.6587 100.923 87.04 101.456C86.4427 101.968 85.7173 102.299 84.864 102.448L84.736 101.392C85.7173 101.563 86.5813 101.925 87.328 102.48C88.096 103.035 88.6933 103.749 89.12 104.624C89.5467 105.499 89.76 106.501 89.76 107.632C89.76 108.933 89.408 110.096 88.704 111.12C88 112.123 87.008 112.923 85.728 113.52C84.448 114.096 82.944 114.384 81.216 114.384ZM81.216 109.136C81.7067 109.136 82.1333 109.029 82.496 108.816C82.88 108.603 83.1787 108.315 83.392 107.952C83.6053 107.568 83.712 107.141 83.712 106.672C83.712 106.203 83.6053 105.787 83.392 105.424C83.1787 105.061 82.88 104.773 82.496 104.56C82.1333 104.347 81.7067 104.24 81.216 104.24C80.7253 104.24 80.288 104.347 79.904 104.56C79.5413 104.773 79.2533 105.061 79.04 105.424C78.8267 105.787 78.72 106.203 78.72 106.672C78.72 107.141 78.8267 107.568 79.04 107.952C79.2533 108.315 79.5413 108.603 79.904 108.816C80.288 109.029 80.7253 109.136 81.216 109.136ZM81.216 99.792C81.7707 99.792 82.2187 99.6213 82.56 99.28C82.9227 98.9173 83.104 98.4693 83.104 97.936C83.104 97.3813 82.9227 96.9227 82.56 96.56C82.2187 96.176 81.7707 95.984 81.216 95.984C80.6613 95.984 80.2027 96.1653 79.84 96.528C79.4773 96.8693 79.296 97.3173 79.296 97.872C79.296 98.4053 79.4773 98.864 79.84 99.248C80.2027 99.6107 80.6613 99.792 81.216 99.792ZM98.7575 114.384C97.2002 114.384 95.6748 114.117 94.1815 113.584C92.7095 113.029 91.4935 112.251 90.5335 111.248L94.5655 107.312C94.9282 107.824 95.4722 108.251 96.1975 108.592C96.9442 108.912 97.7122 109.072 98.5015 109.072C99.1842 109.072 99.7708 108.955 100.262 108.72C100.752 108.485 101.136 108.155 101.414 107.728C101.691 107.28 101.83 106.768 101.83 106.192C101.83 105.616 101.68 105.104 101.382 104.656C101.104 104.187 100.688 103.824 100.134 103.568C99.5788 103.291 98.8962 103.152 98.0855 103.152C97.4028 103.152 96.7628 103.259 96.1655 103.472C95.5682 103.685 95.0562 103.952 94.6295 104.272L95.3335 100.176C95.9735 99.856 96.5175 99.5893 96.9655 99.376C97.4135 99.1627 97.8722 99.0133 98.3415 98.928C98.8108 98.8213 99.3655 98.768 100.006 98.768C101.776 98.768 103.259 99.12 104.454 99.824C105.648 100.528 106.555 101.467 107.174 102.64C107.792 103.792 108.102 105.051 108.102 106.416C108.102 107.973 107.718 109.36 106.95 110.576C106.203 111.771 105.136 112.709 103.75 113.392C102.363 114.053 100.699 114.384 98.7575 114.384ZM94.6295 104.272L92.2935 102.224L93.4775 91.216H99.1735L97.9895 101.616L94.6295 104.272ZM94.1815 96.464L93.4775 91.216H106.854V96.464H94.1815ZM111.148 114L123.852 91.216H129.292L116.588 114H111.148ZM125.804 114.32C124.908 114.32 124.086 114.107 123.34 113.68C122.593 113.232 121.996 112.635 121.548 111.888C121.121 111.141 120.908 110.309 120.908 109.392C120.908 108.475 121.121 107.653 121.548 106.928C121.996 106.203 122.582 105.627 123.308 105.2C124.054 104.752 124.886 104.528 125.804 104.528C126.742 104.528 127.585 104.752 128.332 105.2C129.078 105.627 129.665 106.203 130.092 106.928C130.54 107.653 130.764 108.475 130.764 109.392C130.764 110.309 130.54 111.141 130.092 111.888C129.665 112.635 129.078 113.232 128.332 113.68C127.585 114.107 126.742 114.32 125.804 114.32ZM125.836 110.384C126.113 110.384 126.337 110.299 126.508 110.128C126.7 109.936 126.796 109.701 126.796 109.424C126.796 109.147 126.7 108.923 126.508 108.752C126.337 108.56 126.113 108.464 125.836 108.464C125.558 108.464 125.324 108.56 125.132 108.752C124.961 108.923 124.876 109.147 124.876 109.424C124.876 109.701 124.961 109.936 125.132 110.128C125.324 110.299 125.558 110.384 125.836 110.384ZM114.572 100.688C113.676 100.688 112.854 100.475 112.108 100.048C111.361 99.6 110.764 99.0027 110.316 98.256C109.889 97.5093 109.676 96.6773 109.676 95.76C109.676 94.8427 109.889 94.0213 110.316 93.296C110.764 92.5707 111.35 91.9947 112.076 91.568C112.822 91.12 113.654 90.896 114.572 90.896C115.51 90.896 116.353 91.12 117.1 91.568C117.846 91.9947 118.433 92.5707 118.86 93.296C119.308 94.0213 119.532 94.8427 119.532 95.76C119.532 96.6773 119.308 97.5093 118.86 98.256C118.433 99.0027 117.846 99.6 117.1 100.048C116.353 100.475 115.51 100.688 114.572 100.688ZM114.604 96.752C114.881 96.752 115.105 96.6667 115.276 96.496C115.468 96.304 115.564 96.0693 115.564 95.792C115.564 95.5147 115.468 95.2907 115.276 95.12C115.105 94.928 114.881 94.832 114.604 94.832C114.326 94.832 114.092 94.928 113.9 95.12C113.729 95.2907 113.644 95.5147 113.644 95.792C113.644 96.0693 113.729 96.304 113.9 96.496C114.092 96.6667 114.326 96.752 114.604 96.752Z" fill="white"/>
</g>
<defs>
<linearGradient id="paint0_linear_11_201" x1="-12.4346" y1="91.2148" x2="228.124" y2="92.0983" gradientUnits="userSpaceOnUse">
<stop stop-color="#AA367C"/>
<stop offset="1" stop-color="#4A2FBD"/>
</linearGradient>
<clipPath id="clip0_11_201">
<rect width="204" height="204" fill="white"/>
</clipPath>
</defs>
</svg>
