<svg width="204" height="204" viewBox="0 0 204 204" fill="none" xmlns="http://www.w3.org/2000/svg">
<g clip-path="url(#clip0_11_192)">
<path d="M187.639 69.9024C193.092 67.8589 199.226 70.6146 200.696 76.2487C206.238 97.4866 204.802 120.051 196.436 140.546C186.737 164.31 168.435 183.543 145.182 194.409C121.928 205.275 95.4335 206.975 70.9823 199.169C46.5311 191.364 25.9213 174.628 13.2644 152.299C0.607559 129.97 -3.16595 103.69 2.69673 78.7019C8.55941 53.7137 23.6272 31.8543 44.8943 17.4845C66.1614 3.11471 92.0643 -2.70908 117.435 1.17496C139.317 4.52476 159.415 14.883 174.791 30.5469C178.869 34.7023 178.083 41.3808 173.529 45.0093C168.975 48.6377 162.385 47.8275 158.195 43.7835C146.212 32.2158 130.877 24.5645 114.244 22.0182C94.1183 18.9371 73.5703 23.5569 56.6996 34.9561C39.829 46.3553 27.876 63.6958 23.2253 83.5183C18.5746 103.34 21.5681 124.188 31.6084 141.901C41.6488 159.614 57.9981 172.89 77.3945 179.082C96.791 185.274 117.809 183.925 136.255 175.305C154.701 166.686 169.219 151.429 176.914 132.578C183.273 116.999 184.584 99.912 180.815 83.6883C179.497 78.0167 182.187 71.946 187.639 69.9024Z" fill="url(#paint0_linear_11_192)"/>
<path d="M74.264 114L81.432 94.64H87.608L80.792 114H74.264ZM71.416 96.464V91.216H87.608V94.64L85.816 96.464H71.416ZM98.6293 114.384C96.6666 114.384 94.9173 113.883 93.3813 112.88C91.8666 111.856 90.6719 110.459 89.7973 108.688C88.9226 106.896 88.4853 104.859 88.4853 102.576C88.4853 100.293 88.9119 98.2667 89.7653 96.496C90.6399 94.7253 91.8346 93.3387 93.3493 92.336C94.8639 91.3333 96.6026 90.832 98.5653 90.832C100.549 90.832 102.299 91.3333 103.813 92.336C105.349 93.3387 106.544 94.7253 107.397 96.496C108.272 98.2667 108.709 100.304 108.709 102.608C108.709 104.912 108.272 106.949 107.397 108.72C106.544 110.491 105.36 111.877 103.845 112.88C102.331 113.883 100.592 114.384 98.6293 114.384ZM98.5973 108.944C99.3866 108.944 100.059 108.699 100.613 108.208C101.168 107.717 101.584 107.003 101.861 106.064C102.16 105.104 102.309 103.952 102.309 102.608C102.309 101.264 102.16 100.123 101.861 99.184C101.584 98.2453 101.168 97.5307 100.613 97.04C100.059 96.528 99.3759 96.272 98.5653 96.272C97.7973 96.272 97.1359 96.5173 96.5813 97.008C96.0266 97.4987 95.5999 98.2133 95.3013 99.152C95.0239 100.091 94.8853 101.232 94.8853 102.576C94.8853 103.92 95.0239 105.072 95.3013 106.032C95.5999 106.971 96.0266 107.696 96.5813 108.208C97.1359 108.699 97.8079 108.944 98.5973 108.944ZM111.71 114L124.414 91.216H129.854L117.15 114H111.71ZM126.366 114.32C125.47 114.32 124.649 114.107 123.902 113.68C123.156 113.232 122.558 112.635 122.11 111.888C121.684 111.141 121.47 110.309 121.47 109.392C121.47 108.475 121.684 107.653 122.11 106.928C122.558 106.203 123.145 105.627 123.87 105.2C124.617 104.752 125.449 104.528 126.366 104.528C127.305 104.528 128.148 104.752 128.894 105.2C129.641 105.627 130.228 106.203 130.654 106.928C131.102 107.653 131.326 108.475 131.326 109.392C131.326 110.309 131.102 111.141 130.654 111.888C130.228 112.635 129.641 113.232 128.894 113.68C128.148 114.107 127.305 114.32 126.366 114.32ZM126.398 110.384C126.676 110.384 126.9 110.299 127.07 110.128C127.262 109.936 127.358 109.701 127.358 109.424C127.358 109.147 127.262 108.923 127.07 108.752C126.9 108.56 126.676 108.464 126.398 108.464C126.121 108.464 125.886 108.56 125.694 108.752C125.524 108.923 125.438 109.147 125.438 109.424C125.438 109.701 125.524 109.936 125.694 110.128C125.886 110.299 126.121 110.384 126.398 110.384ZM115.134 100.688C114.238 100.688 113.417 100.475 112.67 100.048C111.924 99.6 111.326 99.0027 110.878 98.256C110.452 97.5093 110.238 96.6773 110.238 95.76C110.238 94.8427 110.452 94.0213 110.878 93.296C111.326 92.5707 111.913 91.9947 112.638 91.568C113.385 91.12 114.217 90.896 115.134 90.896C116.073 90.896 116.916 91.12 117.662 91.568C118.409 91.9947 118.996 92.5707 119.422 93.296C119.87 94.0213 120.094 94.8427 120.094 95.76C120.094 96.6773 119.87 97.5093 119.422 98.256C118.996 99.0027 118.409 99.6 117.662 100.048C116.916 100.475 116.073 100.688 115.134 100.688ZM115.166 96.752C115.444 96.752 115.668 96.6667 115.838 96.496C116.03 96.304 116.126 96.0693 116.126 95.792C116.126 95.5147 116.03 95.2907 115.838 95.12C115.668 94.928 115.444 94.832 115.166 94.832C114.889 94.832 114.654 94.928 114.462 95.12C114.292 95.2907 114.206 95.5147 114.206 95.792C114.206 96.0693 114.292 96.304 114.462 96.496C114.654 96.6667 114.889 96.752 115.166 96.752Z" fill="white"/>
</g>
<defs>
<linearGradient id="paint0_linear_11_192" x1="-12.4346" y1="91.2148" x2="228.124" y2="92.0983" gradientUnits="userSpaceOnUse">
<stop stop-color="#AA367C"/>
<stop offset="1" stop-color="#4A2FBD"/>
</linearGradient>
<clipPath id="clip0_11_192">
<rect width="204" height="204" fill="white"/>
</clipPath>
</defs>
</svg>
