<svg width="204" height="204" viewBox="0 0 204 204" fill="none" xmlns="http://www.w3.org/2000/svg">
<g clip-path="url(#clip0_11_183)">
<path d="M187.639 69.9024C193.092 67.8589 199.226 70.6146 200.696 76.2487C206.238 97.4866 204.802 120.051 196.436 140.546C186.737 164.31 168.435 183.543 145.182 194.409C121.928 205.275 95.4335 206.975 70.9823 199.169C46.5311 191.364 25.9213 174.628 13.2644 152.299C0.607559 129.97 -3.16595 103.69 2.69673 78.7019C8.55941 53.7137 23.6272 31.8543 44.8943 17.4845C66.1614 3.11471 92.0643 -2.70908 117.435 1.17496C139.317 4.52476 159.415 14.883 174.791 30.5469C178.869 34.7023 178.083 41.3808 173.529 45.0093C168.975 48.6377 162.385 47.8275 158.195 43.7835C146.212 32.2158 130.877 24.5645 114.244 22.0182C94.1183 18.9371 73.5703 23.5569 56.6996 34.9561C39.829 46.3553 27.876 63.6958 23.2253 83.5183C18.5746 103.34 21.5681 124.188 31.6084 141.901C41.6488 159.614 57.9981 172.89 77.3945 179.082C96.791 185.274 117.809 183.925 136.255 175.305C154.701 166.686 169.219 151.429 176.914 132.578C183.273 116.999 184.584 99.912 180.815 83.6883C179.497 78.0167 182.187 71.946 187.639 69.9024Z" fill="url(#paint0_linear_11_183)"/>
<path d="M80.32 114.384C78.7627 114.384 77.2373 114.117 75.744 113.584C74.272 113.029 73.056 112.251 72.096 111.248L76.128 107.312C76.4907 107.824 77.0347 108.251 77.76 108.592C78.5067 108.912 79.2747 109.072 80.064 109.072C80.7467 109.072 81.3333 108.955 81.824 108.72C82.3147 108.485 82.6987 108.155 82.976 107.728C83.2533 107.28 83.392 106.768 83.392 106.192C83.392 105.616 83.2427 105.104 82.944 104.656C82.6667 104.187 82.2507 103.824 81.696 103.568C81.1413 103.291 80.4587 103.152 79.648 103.152C78.9653 103.152 78.3253 103.259 77.728 103.472C77.1307 103.685 76.6187 103.952 76.192 104.272L76.896 100.176C77.536 99.856 78.08 99.5893 78.528 99.376C78.976 99.1627 79.4347 99.0133 79.904 98.928C80.3733 98.8213 80.928 98.768 81.568 98.768C83.3387 98.768 84.8213 99.12 86.016 99.824C87.2107 100.528 88.1173 101.467 88.736 102.64C89.3547 103.792 89.664 105.051 89.664 106.416C89.664 107.973 89.28 109.36 88.512 110.576C87.7653 111.771 86.6987 112.709 85.312 113.392C83.9253 114.053 82.2613 114.384 80.32 114.384ZM76.192 104.272L73.856 102.224L75.04 91.216H80.736L79.552 101.616L76.192 104.272ZM75.744 96.464L75.04 91.216H88.416V96.464H75.744ZM98.7263 114.384C97.1689 114.384 95.6436 114.117 94.1503 113.584C92.6783 113.029 91.4623 112.251 90.5023 111.248L94.5343 107.312C94.8969 107.824 95.4409 108.251 96.1663 108.592C96.9129 108.912 97.6809 109.072 98.4703 109.072C99.1529 109.072 99.7396 108.955 100.23 108.72C100.721 108.485 101.105 108.155 101.382 107.728C101.66 107.28 101.798 106.768 101.798 106.192C101.798 105.616 101.649 105.104 101.35 104.656C101.073 104.187 100.657 103.824 100.102 103.568C99.5476 103.291 98.8649 103.152 98.0543 103.152C97.3716 103.152 96.7316 103.259 96.1343 103.472C95.5369 103.685 95.0249 103.952 94.5983 104.272L95.3023 100.176C95.9423 99.856 96.4863 99.5893 96.9343 99.376C97.3823 99.1627 97.8409 99.0133 98.3103 98.928C98.7796 98.8213 99.3343 98.768 99.9743 98.768C101.745 98.768 103.228 99.12 104.422 99.824C105.617 100.528 106.524 101.467 107.142 102.64C107.761 103.792 108.07 105.051 108.07 106.416C108.07 107.973 107.686 109.36 106.918 110.576C106.172 111.771 105.105 112.709 103.718 113.392C102.332 114.053 100.668 114.384 98.7263 114.384ZM94.5983 104.272L92.2623 102.224L93.4463 91.216H99.1423L97.9583 101.616L94.5983 104.272ZM94.1503 96.464L93.4463 91.216H106.822V96.464H94.1503ZM111.117 114L123.821 91.216H129.261L116.557 114H111.117ZM125.773 114.32C124.877 114.32 124.055 114.107 123.309 113.68C122.562 113.232 121.965 112.635 121.517 111.888C121.09 111.141 120.877 110.309 120.877 109.392C120.877 108.475 121.09 107.653 121.517 106.928C121.965 106.203 122.551 105.627 123.277 105.2C124.023 104.752 124.855 104.528 125.773 104.528C126.711 104.528 127.554 104.752 128.301 105.2C129.047 105.627 129.634 106.203 130.061 106.928C130.509 107.653 130.733 108.475 130.733 109.392C130.733 110.309 130.509 111.141 130.061 111.888C129.634 112.635 129.047 113.232 128.301 113.68C127.554 114.107 126.711 114.32 125.773 114.32ZM125.805 110.384C126.082 110.384 126.306 110.299 126.477 110.128C126.669 109.936 126.765 109.701 126.765 109.424C126.765 109.147 126.669 108.923 126.477 108.752C126.306 108.56 126.082 108.464 125.805 108.464C125.527 108.464 125.293 108.56 125.101 108.752C124.93 108.923 124.845 109.147 124.845 109.424C124.845 109.701 124.93 109.936 125.101 110.128C125.293 110.299 125.527 110.384 125.805 110.384ZM114.541 100.688C113.645 100.688 112.823 100.475 112.077 100.048C111.33 99.6 110.733 99.0027 110.285 98.256C109.858 97.5093 109.645 96.6773 109.645 95.76C109.645 94.8427 109.858 94.0213 110.285 93.296C110.733 92.5707 111.319 91.9947 112.045 91.568C112.791 91.12 113.623 90.896 114.541 90.896C115.479 90.896 116.322 91.12 117.069 91.568C117.815 91.9947 118.402 92.5707 118.829 93.296C119.277 94.0213 119.501 94.8427 119.501 95.76C119.501 96.6773 119.277 97.5093 118.829 98.256C118.402 99.0027 117.815 99.6 117.069 100.048C116.322 100.475 115.479 100.688 114.541 100.688ZM114.573 96.752C114.85 96.752 115.074 96.6667 115.245 96.496C115.437 96.304 115.533 96.0693 115.533 95.792C115.533 95.5147 115.437 95.2907 115.245 95.12C115.074 94.928 114.85 94.832 114.573 94.832C114.295 94.832 114.061 94.928 113.869 95.12C113.698 95.2907 113.613 95.5147 113.613 95.792C113.613 96.0693 113.698 96.304 113.869 96.496C114.061 96.6667 114.295 96.752 114.573 96.752Z" fill="white"/>
</g>
<defs>
<linearGradient id="paint0_linear_11_183" x1="-12.4346" y1="91.2148" x2="228.124" y2="92.0983" gradientUnits="userSpaceOnUse">
<stop stop-color="#AA367C"/>
<stop offset="1" stop-color="#4A2FBD"/>
</linearGradient>
<clipPath id="clip0_11_183">
<rect width="204" height="204" fill="white"/>
</clipPath>
</defs>
</svg>
