<svg width="204" height="204" viewBox="0 0 204 204" fill="none" xmlns="http://www.w3.org/2000/svg">
<path d="M187.639 69.9024C193.092 67.8589 199.226 70.6146 200.696 76.2487C206.238 97.4866 204.802 120.051 196.436 140.546C186.737 164.31 168.435 183.543 145.182 194.409C121.928 205.275 95.4335 206.975 70.9823 199.169C46.5311 191.364 25.9213 174.628 13.2644 152.299C0.607559 129.97 -3.16595 103.69 2.69673 78.7019C8.55941 53.7137 23.6272 31.8543 44.8943 17.4845C66.1614 3.11471 92.0643 -2.70908 117.435 1.17496C139.317 4.52476 159.415 14.883 174.791 30.5469C178.869 34.7023 178.083 41.3808 173.529 45.0093C168.975 48.6377 162.385 47.8275 158.195 43.7835C146.212 32.2158 130.877 24.5645 114.244 22.0182C94.1183 18.9371 73.5703 23.5569 56.6996 34.9561C39.829 46.3553 27.876 63.6958 23.2253 83.5183C18.5746 103.34 21.5681 124.188 31.6084 141.901C41.6488 159.614 57.9981 172.89 77.3945 179.082C96.791 185.274 117.809 183.925 136.255 175.305C154.701 166.686 169.219 151.429 176.914 132.578C183.273 116.999 184.584 99.912 180.815 83.6883C179.497 78.0167 182.187 71.946 187.639 69.9024Z" fill="url(#paint0_linear_11_109)"/>
<path d="M70.448 106.32L77.296 91.216H84.08L77.072 106.32H70.448ZM70.448 109.744V106.32L72.176 104.496H89.264V109.744H70.448ZM81.136 114V100.688H87.376V114H81.136ZM100.629 114.384C98.6666 114.384 96.9173 113.883 95.3813 112.88C93.8666 111.856 92.6719 110.459 91.7973 108.688C90.9226 106.896 90.4853 104.859 90.4853 102.576C90.4853 100.293 90.9119 98.2667 91.7653 96.496C92.6399 94.7253 93.8346 93.3387 95.3493 92.336C96.8639 91.3333 98.6026 90.832 100.565 90.832C102.549 90.832 104.299 91.3333 105.813 92.336C107.349 93.3387 108.544 94.7253 109.397 96.496C110.272 98.2667 110.709 100.304 110.709 102.608C110.709 104.912 110.272 106.949 109.397 108.72C108.544 110.491 107.36 111.877 105.845 112.88C104.331 113.883 102.592 114.384 100.629 114.384ZM100.597 108.944C101.387 108.944 102.059 108.699 102.613 108.208C103.168 107.717 103.584 107.003 103.861 106.064C104.16 105.104 104.309 103.952 104.309 102.608C104.309 101.264 104.16 100.123 103.861 99.184C103.584 98.2453 103.168 97.5307 102.613 97.04C102.059 96.528 101.376 96.272 100.565 96.272C99.7973 96.272 99.1359 96.5173 98.5813 97.008C98.0266 97.4987 97.5999 98.2133 97.3013 99.152C97.0239 100.091 96.8853 101.232 96.8853 102.576C96.8853 103.92 97.0239 105.072 97.3013 106.032C97.5999 106.971 98.0266 107.696 98.5813 108.208C99.1359 108.699 99.8079 108.944 100.597 108.944ZM113.71 114L126.414 91.216H131.854L119.15 114H113.71ZM128.366 114.32C127.47 114.32 126.649 114.107 125.902 113.68C125.156 113.232 124.558 112.635 124.11 111.888C123.684 111.141 123.47 110.309 123.47 109.392C123.47 108.475 123.684 107.653 124.11 106.928C124.558 106.203 125.145 105.627 125.87 105.2C126.617 104.752 127.449 104.528 128.366 104.528C129.305 104.528 130.148 104.752 130.894 105.2C131.641 105.627 132.228 106.203 132.654 106.928C133.102 107.653 133.326 108.475 133.326 109.392C133.326 110.309 133.102 111.141 132.654 111.888C132.228 112.635 131.641 113.232 130.894 113.68C130.148 114.107 129.305 114.32 128.366 114.32ZM128.398 110.384C128.676 110.384 128.9 110.299 129.07 110.128C129.262 109.936 129.358 109.701 129.358 109.424C129.358 109.147 129.262 108.923 129.07 108.752C128.9 108.56 128.676 108.464 128.398 108.464C128.121 108.464 127.886 108.56 127.694 108.752C127.524 108.923 127.438 109.147 127.438 109.424C127.438 109.701 127.524 109.936 127.694 110.128C127.886 110.299 128.121 110.384 128.398 110.384ZM117.134 100.688C116.238 100.688 115.417 100.475 114.67 100.048C113.924 99.6 113.326 99.0027 112.878 98.256C112.452 97.5093 112.238 96.6773 112.238 95.76C112.238 94.8427 112.452 94.0213 112.878 93.296C113.326 92.5707 113.913 91.9947 114.638 91.568C115.385 91.12 116.217 90.896 117.134 90.896C118.073 90.896 118.916 91.12 119.662 91.568C120.409 91.9947 120.996 92.5707 121.422 93.296C121.87 94.0213 122.094 94.8427 122.094 95.76C122.094 96.6773 121.87 97.5093 121.422 98.256C120.996 99.0027 120.409 99.6 119.662 100.048C118.916 100.475 118.073 100.688 117.134 100.688ZM117.166 96.752C117.444 96.752 117.668 96.6667 117.838 96.496C118.03 96.304 118.126 96.0693 118.126 95.792C118.126 95.5147 118.03 95.2907 117.838 95.12C117.668 94.928 117.444 94.832 117.166 94.832C116.889 94.832 116.654 94.928 116.462 95.12C116.292 95.2907 116.206 95.5147 116.206 95.792C116.206 96.0693 116.292 96.304 116.462 96.496C116.654 96.6667 116.889 96.752 117.166 96.752Z" fill="white"/>
<defs>
<linearGradient id="paint0_linear_11_109" x1="-12.4346" y1="91.2148" x2="228.124" y2="92.0983" gradientUnits="userSpaceOnUse">
<stop stop-color="#AA367C"/>
<stop offset="1" stop-color="#4A2FBD"/>
</linearGradient>
</defs>
</svg>
