<svg width="204" height="204" viewBox="0 0 204 204" fill="none" xmlns="http://www.w3.org/2000/svg">
<g clip-path="url(#clip0_11_180)">
<path d="M187.639 69.9024C193.092 67.8589 199.226 70.6146 200.696 76.2487C206.238 97.4866 204.802 120.051 196.436 140.546C186.737 164.31 168.435 183.543 145.182 194.409C121.928 205.275 95.4335 206.975 70.9823 199.169C46.5311 191.364 25.9213 174.628 13.2644 152.299C0.607559 129.97 -3.16595 103.69 2.69673 78.7019C8.55941 53.7137 23.6272 31.8543 44.8943 17.4845C66.1614 3.11471 92.0643 -2.70908 117.435 1.17496C139.317 4.52476 159.415 14.883 174.791 30.5469C178.869 34.7023 178.083 41.3808 173.529 45.0093C168.975 48.6377 162.385 47.8275 158.195 43.7835C146.212 32.2158 130.877 24.5645 114.244 22.0182C94.1183 18.9371 73.5703 23.5569 56.6996 34.9561C39.829 46.3553 27.876 63.6958 23.2253 83.5183C18.5746 103.34 21.5681 124.188 31.6084 141.901C41.6488 159.614 57.9981 172.89 77.3945 179.082C96.791 185.274 117.809 183.925 136.255 175.305C154.701 166.686 169.219 151.429 176.914 132.578C183.273 116.999 184.584 99.912 180.815 83.6883C179.497 78.0167 182.187 71.946 187.639 69.9024Z" fill="url(#paint0_linear_11_180)"/>
<path d="M79.32 114.384C77.7627 114.384 76.2373 114.117 74.744 113.584C73.272 113.029 72.056 112.251 71.096 111.248L75.128 107.312C75.4907 107.824 76.0347 108.251 76.76 108.592C77.5067 108.912 78.2747 109.072 79.064 109.072C79.7467 109.072 80.3333 108.955 80.824 108.72C81.3147 108.485 81.6987 108.155 81.976 107.728C82.2533 107.28 82.392 106.768 82.392 106.192C82.392 105.616 82.2427 105.104 81.944 104.656C81.6667 104.187 81.2507 103.824 80.696 103.568C80.1413 103.291 79.4587 103.152 78.648 103.152C77.9653 103.152 77.3253 103.259 76.728 103.472C76.1307 103.685 75.6187 103.952 75.192 104.272L75.896 100.176C76.536 99.856 77.08 99.5893 77.528 99.376C77.976 99.1627 78.4347 99.0133 78.904 98.928C79.3733 98.8213 79.928 98.768 80.568 98.768C82.3387 98.768 83.8213 99.12 85.016 99.824C86.2107 100.528 87.1173 101.467 87.736 102.64C88.3547 103.792 88.664 105.051 88.664 106.416C88.664 107.973 88.28 109.36 87.512 110.576C86.7653 111.771 85.6987 112.709 84.312 113.392C82.9253 114.053 81.2613 114.384 79.32 114.384ZM75.192 104.272L72.856 102.224L74.04 91.216H79.736L78.552 101.616L75.192 104.272ZM74.744 96.464L74.04 91.216H87.416V96.464H74.744ZM100.254 114.384C98.2916 114.384 96.5423 113.883 95.0063 112.88C93.4916 111.856 92.2969 110.459 91.4223 108.688C90.5476 106.896 90.1103 104.859 90.1103 102.576C90.1103 100.293 90.5369 98.2667 91.3903 96.496C92.2649 94.7253 93.4596 93.3387 94.9743 92.336C96.4889 91.3333 98.2276 90.832 100.19 90.832C102.174 90.832 103.924 91.3333 105.438 92.336C106.974 93.3387 108.169 94.7253 109.022 96.496C109.897 98.2667 110.334 100.304 110.334 102.608C110.334 104.912 109.897 106.949 109.022 108.72C108.169 110.491 106.985 111.877 105.47 112.88C103.956 113.883 102.217 114.384 100.254 114.384ZM100.222 108.944C101.012 108.944 101.684 108.699 102.238 108.208C102.793 107.717 103.209 107.003 103.486 106.064C103.785 105.104 103.934 103.952 103.934 102.608C103.934 101.264 103.785 100.123 103.486 99.184C103.209 98.2453 102.793 97.5307 102.238 97.04C101.684 96.528 101.001 96.272 100.19 96.272C99.4223 96.272 98.7609 96.5173 98.2063 97.008C97.6516 97.4987 97.2249 98.2133 96.9263 99.152C96.6489 100.091 96.5103 101.232 96.5103 102.576C96.5103 103.92 96.6489 105.072 96.9263 106.032C97.2249 106.971 97.6516 107.696 98.2063 108.208C98.7609 108.699 99.4329 108.944 100.222 108.944ZM113.335 114L126.039 91.216H131.479L118.775 114H113.335ZM127.991 114.32C127.095 114.32 126.274 114.107 125.527 113.68C124.781 113.232 124.183 112.635 123.735 111.888C123.309 111.141 123.095 110.309 123.095 109.392C123.095 108.475 123.309 107.653 123.735 106.928C124.183 106.203 124.77 105.627 125.495 105.2C126.242 104.752 127.074 104.528 127.991 104.528C128.93 104.528 129.773 104.752 130.519 105.2C131.266 105.627 131.853 106.203 132.279 106.928C132.727 107.653 132.951 108.475 132.951 109.392C132.951 110.309 132.727 111.141 132.279 111.888C131.853 112.635 131.266 113.232 130.519 113.68C129.773 114.107 128.93 114.32 127.991 114.32ZM128.023 110.384C128.301 110.384 128.525 110.299 128.695 110.128C128.887 109.936 128.983 109.701 128.983 109.424C128.983 109.147 128.887 108.923 128.695 108.752C128.525 108.56 128.301 108.464 128.023 108.464C127.746 108.464 127.511 108.56 127.319 108.752C127.149 108.923 127.063 109.147 127.063 109.424C127.063 109.701 127.149 109.936 127.319 110.128C127.511 110.299 127.746 110.384 128.023 110.384ZM116.759 100.688C115.863 100.688 115.042 100.475 114.295 100.048C113.549 99.6 112.951 99.0027 112.503 98.256C112.077 97.5093 111.863 96.6773 111.863 95.76C111.863 94.8427 112.077 94.0213 112.503 93.296C112.951 92.5707 113.538 91.9947 114.263 91.568C115.01 91.12 115.842 90.896 116.759 90.896C117.698 90.896 118.541 91.12 119.287 91.568C120.034 91.9947 120.621 92.5707 121.047 93.296C121.495 94.0213 121.719 94.8427 121.719 95.76C121.719 96.6773 121.495 97.5093 121.047 98.256C120.621 99.0027 120.034 99.6 119.287 100.048C118.541 100.475 117.698 100.688 116.759 100.688ZM116.791 96.752C117.069 96.752 117.293 96.6667 117.463 96.496C117.655 96.304 117.751 96.0693 117.751 95.792C117.751 95.5147 117.655 95.2907 117.463 95.12C117.293 94.928 117.069 94.832 116.791 94.832C116.514 94.832 116.279 94.928 116.087 95.12C115.917 95.2907 115.831 95.5147 115.831 95.792C115.831 96.0693 115.917 96.304 116.087 96.496C116.279 96.6667 116.514 96.752 116.791 96.752Z" fill="white"/>
</g>
<defs>
<linearGradient id="paint0_linear_11_180" x1="-12.4346" y1="91.2148" x2="228.124" y2="92.0983" gradientUnits="userSpaceOnUse">
<stop stop-color="#AA367C"/>
<stop offset="1" stop-color="#4A2FBD"/>
</linearGradient>
<clipPath id="clip0_11_180">
<rect width="204" height="204" fill="white"/>
</clipPath>
</defs>
</svg>
