<svg width="204" height="204" viewBox="0 0 204 204" fill="none" xmlns="http://www.w3.org/2000/svg">
<g clip-path="url(#clip0_11_204)">
<path d="M187.639 69.9024C193.092 67.8589 199.226 70.6146 200.696 76.2487C206.238 97.4866 204.802 120.051 196.436 140.546C186.737 164.31 168.435 183.543 145.182 194.409C121.928 205.275 95.4335 206.975 70.9823 199.169C46.5311 191.364 25.9213 174.628 13.2644 152.299C0.607559 129.97 -3.16595 103.69 2.69673 78.7019C8.55941 53.7137 23.6272 31.8543 44.8943 17.4845C66.1614 3.11471 92.0643 -2.70908 117.435 1.17496C139.317 4.52476 159.415 14.883 174.791 30.5469C178.869 34.7023 178.083 41.3808 173.529 45.0093C168.975 48.6377 162.385 47.8275 158.195 43.7835C146.212 32.2158 130.877 24.5645 114.244 22.0182C94.1183 18.9371 73.5703 23.5569 56.6996 34.9561C39.829 46.3553 27.876 63.6958 23.2253 83.5183C18.5746 103.34 21.5681 124.188 31.6084 141.901C41.6488 159.614 57.9981 172.89 77.3945 179.082C96.791 185.274 117.809 183.925 136.255 175.305C154.701 166.686 169.219 151.429 176.914 132.578C183.273 116.999 184.584 99.912 180.815 83.6883C179.497 78.0167 182.187 71.946 187.639 69.9024Z" fill="url(#paint0_linear_11_204)"/>
<path d="M72.592 114L80.24 103.44L82.64 103.952C82.2773 104.485 81.9253 104.944 81.584 105.328C81.264 105.712 80.8693 106.011 80.4 106.224C79.9307 106.437 79.2907 106.544 78.48 106.544C77.008 106.544 75.664 106.203 74.448 105.52C73.2533 104.816 72.2933 103.888 71.568 102.736C70.864 101.563 70.512 100.261 70.512 98.832C70.512 97.3173 70.896 95.9627 71.664 94.768C72.4533 93.552 73.5093 92.592 74.832 91.888C76.176 91.184 77.68 90.832 79.344 90.832C81.0293 90.832 82.5333 91.184 83.856 91.888C85.1787 92.592 86.224 93.552 86.992 94.768C87.7813 95.9627 88.176 97.3173 88.176 98.832C88.176 100.624 87.5573 102.427 86.32 104.24L79.696 114H72.592ZM79.344 101.904C79.8773 101.904 80.3467 101.787 80.752 101.552C81.1787 101.296 81.5093 100.955 81.744 100.528C81.9787 100.08 82.096 99.5787 82.096 99.024C82.096 98.4693 81.9787 97.9787 81.744 97.552C81.5093 97.104 81.1787 96.7627 80.752 96.528C80.3467 96.272 79.8773 96.144 79.344 96.144C78.8107 96.144 78.3307 96.272 77.904 96.528C77.4987 96.7627 77.1787 97.104 76.944 97.552C76.7093 97.9787 76.592 98.4693 76.592 99.024C76.592 99.5787 76.7093 100.08 76.944 100.528C77.1787 100.955 77.4987 101.296 77.904 101.552C78.3307 101.787 78.8107 101.904 79.344 101.904ZM99.5355 114.384C97.5728 114.384 95.8235 113.883 94.2875 112.88C92.7728 111.856 91.5782 110.459 90.7035 108.688C89.8288 106.896 89.3915 104.859 89.3915 102.576C89.3915 100.293 89.8182 98.2667 90.6715 96.496C91.5462 94.7253 92.7408 93.3387 94.2555 92.336C95.7702 91.3333 97.5088 90.832 99.4715 90.832C101.456 90.832 103.205 91.3333 104.72 92.336C106.256 93.3387 107.45 94.7253 108.304 96.496C109.178 98.2667 109.616 100.304 109.616 102.608C109.616 104.912 109.178 106.949 108.304 108.72C107.45 110.491 106.266 111.877 104.752 112.88C103.237 113.883 101.498 114.384 99.5355 114.384ZM99.5035 108.944C100.293 108.944 100.965 108.699 101.52 108.208C102.074 107.717 102.49 107.003 102.768 106.064C103.066 105.104 103.216 103.952 103.216 102.608C103.216 101.264 103.066 100.123 102.768 99.184C102.49 98.2453 102.074 97.5307 101.52 97.04C100.965 96.528 100.282 96.272 99.4715 96.272C98.7035 96.272 98.0422 96.5173 97.4875 97.008C96.9328 97.4987 96.5062 98.2133 96.2075 99.152C95.9302 100.091 95.7915 101.232 95.7915 102.576C95.7915 103.92 95.9302 105.072 96.2075 106.032C96.5062 106.971 96.9328 107.696 97.4875 108.208C98.0422 108.699 98.7142 108.944 99.5035 108.944ZM112.617 114L125.321 91.216H130.761L118.057 114H112.617ZM127.273 114.32C126.377 114.32 125.555 114.107 124.809 113.68C124.062 113.232 123.465 112.635 123.017 111.888C122.59 111.141 122.377 110.309 122.377 109.392C122.377 108.475 122.59 107.653 123.017 106.928C123.465 106.203 124.051 105.627 124.777 105.2C125.523 104.752 126.355 104.528 127.273 104.528C128.211 104.528 129.054 104.752 129.801 105.2C130.547 105.627 131.134 106.203 131.561 106.928C132.009 107.653 132.233 108.475 132.233 109.392C132.233 110.309 132.009 111.141 131.561 111.888C131.134 112.635 130.547 113.232 129.801 113.68C129.054 114.107 128.211 114.32 127.273 114.32ZM127.305 110.384C127.582 110.384 127.806 110.299 127.977 110.128C128.169 109.936 128.265 109.701 128.265 109.424C128.265 109.147 128.169 108.923 127.977 108.752C127.806 108.56 127.582 108.464 127.305 108.464C127.027 108.464 126.793 108.56 126.601 108.752C126.43 108.923 126.345 109.147 126.345 109.424C126.345 109.701 126.43 109.936 126.601 110.128C126.793 110.299 127.027 110.384 127.305 110.384ZM116.041 100.688C115.145 100.688 114.323 100.475 113.577 100.048C112.83 99.6 112.233 99.0027 111.785 98.256C111.358 97.5093 111.145 96.6773 111.145 95.76C111.145 94.8427 111.358 94.0213 111.785 93.296C112.233 92.5707 112.819 91.9947 113.545 91.568C114.291 91.12 115.123 90.896 116.041 90.896C116.979 90.896 117.822 91.12 118.569 91.568C119.315 91.9947 119.902 92.5707 120.329 93.296C120.777 94.0213 121.001 94.8427 121.001 95.76C121.001 96.6773 120.777 97.5093 120.329 98.256C119.902 99.0027 119.315 99.6 118.569 100.048C117.822 100.475 116.979 100.688 116.041 100.688ZM116.073 96.752C116.35 96.752 116.574 96.6667 116.745 96.496C116.937 96.304 117.033 96.0693 117.033 95.792C117.033 95.5147 116.937 95.2907 116.745 95.12C116.574 94.928 116.35 94.832 116.073 94.832C115.795 94.832 115.561 94.928 115.369 95.12C115.198 95.2907 115.113 95.5147 115.113 95.792C115.113 96.0693 115.198 96.304 115.369 96.496C115.561 96.6667 115.795 96.752 116.073 96.752Z" fill="white"/>
</g>
<defs>
<linearGradient id="paint0_linear_11_204" x1="-12.4346" y1="91.2148" x2="228.124" y2="92.0983" gradientUnits="userSpaceOnUse">
<stop stop-color="#AA367C"/>
<stop offset="1" stop-color="#4A2FBD"/>
</linearGradient>
<clipPath id="clip0_11_204">
<rect width="204" height="204" fill="white"/>
</clipPath>
</defs>
</svg>
