<svg width="204" height="204" viewBox="0 0 204 204" fill="none" xmlns="http://www.w3.org/2000/svg">
<g clip-path="url(#clip0_11_210)">
<path d="M187.639 69.9024C193.092 67.8589 199.226 70.6146 200.696 76.2487C206.238 97.4866 204.802 120.051 196.436 140.546C186.737 164.31 168.435 183.543 145.182 194.409C121.928 205.275 95.4335 206.975 70.9823 199.169C46.5311 191.364 25.9213 174.628 13.2644 152.299C0.607559 129.97 -3.16595 103.69 2.69673 78.7019C8.55941 53.7137 23.6272 31.8543 44.8943 17.4845C66.1614 3.11471 92.0643 -2.70908 117.435 1.17496C139.317 4.52476 159.415 14.883 174.791 30.5469C178.869 34.7023 178.083 41.3808 173.529 45.0093C168.975 48.6377 162.385 47.8275 158.195 43.7835C146.212 32.2158 130.877 24.5645 114.244 22.0182C94.1183 18.9371 73.5703 23.5569 56.6996 34.9561C39.829 46.3553 27.876 63.6958 23.2253 83.5183C18.5746 103.34 21.5681 124.188 31.6084 141.901C41.6488 159.614 57.9981 172.89 77.3945 179.082C96.791 185.274 117.809 183.925 136.255 175.305C154.701 166.686 169.219 151.429 176.914 132.578C183.273 116.999 184.584 99.912 180.815 83.6883C179.497 78.0167 182.187 71.946 187.639 69.9024Z" fill="url(#paint0_linear_11_210)"/>
<path d="M66.672 114V91.216H73.008V114H66.672ZM62.416 96.464V91.216H72.688V96.464H62.416ZM85.6918 114.384C83.7291 114.384 81.9798 113.883 80.4438 112.88C78.9291 111.856 77.7344 110.459 76.8598 108.688C75.9851 106.896 75.5478 104.859 75.5478 102.576C75.5478 100.293 75.9744 98.2667 76.8278 96.496C77.7024 94.7253 78.8971 93.3387 80.4118 92.336C81.9264 91.3333 83.6651 90.832 85.6278 90.832C87.6118 90.832 89.3611 91.3333 90.8758 92.336C92.4118 93.3387 93.6064 94.7253 94.4598 96.496C95.3344 98.2667 95.7718 100.304 95.7718 102.608C95.7718 104.912 95.3344 106.949 94.4598 108.72C93.6064 110.491 92.4224 111.877 90.9078 112.88C89.3931 113.883 87.6544 114.384 85.6918 114.384ZM85.6598 108.944C86.4491 108.944 87.1211 108.699 87.6758 108.208C88.2304 107.717 88.6464 107.003 88.9238 106.064C89.2224 105.104 89.3718 103.952 89.3718 102.608C89.3718 101.264 89.2224 100.123 88.9238 99.184C88.6464 98.2453 88.2304 97.5307 87.6758 97.04C87.1211 96.528 86.4384 96.272 85.6278 96.272C84.8598 96.272 84.1984 96.5173 83.6438 97.008C83.0891 97.4987 82.6624 98.2133 82.3638 99.152C82.0864 100.091 81.9478 101.232 81.9478 102.576C81.9478 103.92 82.0864 105.072 82.3638 106.032C82.6624 106.971 83.0891 107.696 83.6438 108.208C84.1984 108.699 84.8704 108.944 85.6598 108.944ZM107.317 114.384C105.354 114.384 103.605 113.883 102.069 112.88C100.554 111.856 99.3594 110.459 98.4848 108.688C97.6101 106.896 97.1728 104.859 97.1728 102.576C97.1728 100.293 97.5994 98.2667 98.4528 96.496C99.3274 94.7253 100.522 93.3387 102.037 92.336C103.551 91.3333 105.29 90.832 107.253 90.832C109.237 90.832 110.986 91.3333 112.501 92.336C114.037 93.3387 115.231 94.7253 116.085 96.496C116.959 98.2667 117.397 100.304 117.397 102.608C117.397 104.912 116.959 106.949 116.085 108.72C115.231 110.491 114.047 111.877 112.533 112.88C111.018 113.883 109.279 114.384 107.317 114.384ZM107.285 108.944C108.074 108.944 108.746 108.699 109.301 108.208C109.855 107.717 110.271 107.003 110.549 106.064C110.847 105.104 110.997 103.952 110.997 102.608C110.997 101.264 110.847 100.123 110.549 99.184C110.271 98.2453 109.855 97.5307 109.301 97.04C108.746 96.528 108.063 96.272 107.253 96.272C106.485 96.272 105.823 96.5173 105.269 97.008C104.714 97.4987 104.287 98.2133 103.989 99.152C103.711 100.091 103.573 101.232 103.573 102.576C103.573 103.92 103.711 105.072 103.989 106.032C104.287 106.971 104.714 107.696 105.269 108.208C105.823 108.699 106.495 108.944 107.285 108.944ZM120.398 114L133.102 91.216H138.542L125.838 114H120.398ZM135.054 114.32C134.158 114.32 133.336 114.107 132.59 113.68C131.843 113.232 131.246 112.635 130.798 111.888C130.371 111.141 130.158 110.309 130.158 109.392C130.158 108.475 130.371 107.653 130.798 106.928C131.246 106.203 131.832 105.627 132.558 105.2C133.304 104.752 134.136 104.528 135.054 104.528C135.992 104.528 136.835 104.752 137.582 105.2C138.328 105.627 138.915 106.203 139.342 106.928C139.79 107.653 140.014 108.475 140.014 109.392C140.014 110.309 139.79 111.141 139.342 111.888C138.915 112.635 138.328 113.232 137.582 113.68C136.835 114.107 135.992 114.32 135.054 114.32ZM135.086 110.384C135.363 110.384 135.587 110.299 135.758 110.128C135.95 109.936 136.046 109.701 136.046 109.424C136.046 109.147 135.95 108.923 135.758 108.752C135.587 108.56 135.363 108.464 135.086 108.464C134.808 108.464 134.574 108.56 134.382 108.752C134.211 108.923 134.126 109.147 134.126 109.424C134.126 109.701 134.211 109.936 134.382 110.128C134.574 110.299 134.808 110.384 135.086 110.384ZM123.822 100.688C122.926 100.688 122.104 100.475 121.358 100.048C120.611 99.6 120.014 99.0027 119.566 98.256C119.139 97.5093 118.926 96.6773 118.926 95.76C118.926 94.8427 119.139 94.0213 119.566 93.296C120.014 92.5707 120.6 91.9947 121.326 91.568C122.072 91.12 122.904 90.896 123.822 90.896C124.76 90.896 125.603 91.12 126.35 91.568C127.096 91.9947 127.683 92.5707 128.11 93.296C128.558 94.0213 128.782 94.8427 128.782 95.76C128.782 96.6773 128.558 97.5093 128.11 98.256C127.683 99.0027 127.096 99.6 126.35 100.048C125.603 100.475 124.76 100.688 123.822 100.688ZM123.854 96.752C124.131 96.752 124.355 96.6667 124.526 96.496C124.718 96.304 124.814 96.0693 124.814 95.792C124.814 95.5147 124.718 95.2907 124.526 95.12C124.355 94.928 124.131 94.832 123.854 94.832C123.576 94.832 123.342 94.928 123.15 95.12C122.979 95.2907 122.894 95.5147 122.894 95.792C122.894 96.0693 122.979 96.304 123.15 96.496C123.342 96.6667 123.576 96.752 123.854 96.752Z" fill="white"/>
</g>
<defs>
<linearGradient id="paint0_linear_11_210" x1="-12.4346" y1="91.2148" x2="228.124" y2="92.0983" gradientUnits="userSpaceOnUse">
<stop stop-color="#AA367C"/>
<stop offset="1" stop-color="#4A2FBD"/>
</linearGradient>
<clipPath id="clip0_11_210">
<rect width="204" height="204" fill="white"/>
</clipPath>
</defs>
</svg>
